<svg width="147" height="115" viewBox="0 0 147 115" fill="none" xmlns="http://www.w3.org/2000/svg">
<path fill-rule="evenodd" clip-rule="evenodd" d="M83.3771 26.0349L97.743 0L103.664 3.57703L87.6424 32.6132V81.6213H78.9403V32.5185H79.0596L63.09 3.57704L69.0113 1.34923e-05L83.3771 26.0349ZM23.4645 81.6213C29.4993 81.6213 35.0019 79.2377 39.1594 75.3211V81.6213H46.9291V32.5185H39.1594V38.8187C35.0019 34.9021 29.4993 32.5185 23.4645 32.5185C10.5054 32.5185 0 43.5105 0 57.0699C0 70.6293 10.5054 81.6213 23.4645 81.6213ZM67.1303 32.5185H58.4282V81.6213H58.7502L42.578 110.93L48.4994 114.507L62.8652 88.4719L77.2311 114.507L83.1524 110.93L66.9802 81.6213H67.1303V32.5185ZM146.071 57.0699C146.071 70.6293 135.565 81.6213 122.606 81.6213C109.647 81.6213 99.1415 70.6293 99.1415 57.0699C99.1415 43.5105 109.647 32.5185 122.606 32.5185C135.565 32.5185 146.071 43.5105 146.071 57.0699ZM147 22.6003L142.963 20.1614L136.125 32.5526L140.163 34.9915L147 22.6003Z" fill="white"/>
</svg>
